<?xml version="1.0" encoding="UTF-8"?>
<svg version="1.1" xmlns="http://www.w3.org/2000/svg" width="32" height="32">
<path d="M0 0 C10.56 0 21.12 0 32 0 C32 10.56 32 21.12 32 32 C21.44 32 10.88 32 0 32 C0 21.44 0 10.88 0 0 Z " fill="#A2B2B3" transform="translate(0,0)"/>
<path d="M0 0 C0.33 0.66 0.66 1.32 1 2 C3.97 2 6.94 2 10 2 C10.33 1.34 10.66 0.68 11 0 C10.125 3.875 10.125 3.875 9 5 C9.66 5.33 10.32 5.66 11 6 C10.75 8.375 10.75 8.375 10 11 C7.9375 12.3125 7.9375 12.3125 6 13 C6 14.32 6 15.64 6 17 C6.86625 16.62875 7.7325 16.2575 8.625 15.875 C13.20490619 14.68761691 15.89059557 15.94529779 20 18 C20 18.99 20 19.98 20 21 C9.44 21 -1.12 21 -12 21 C-12 18.36 -12 15.72 -12 13 C-10.35 12.67 -8.7 12.34 -7 12 C-6.01 13.32 -5.02 14.64 -4 16 C-4.33 14.96875 -4.66 13.9375 -5 12.875 C-6.1508754 8.85101722 -6.93637978 4.87275956 -5 1 C-3.35 1.33 -1.7 1.66 0 2 C0 1.34 0 0.68 0 0 Z " fill="#8D9FA5" transform="translate(12,11)"/>
<path d="M0 0 C0.33 0.66 0.66 1.32 1 2 C3.97 2 6.94 2 10 2 C10.33 1.34 10.66 0.68 11 0 C10.125 3.875 10.125 3.875 9 5 C9.66 5.33 10.32 5.66 11 6 C10.25 10.75 10.25 10.75 8 13 C5.6875 13.265625 5.6875 13.265625 3 13.25 C1.6696875 13.25773437 1.6696875 13.25773437 0.3125 13.265625 C-2 13 -2 13 -4 11 C-4.1953125 8.6171875 -4.1953125 8.6171875 -4.125 5.875 C-4.10695313 4.96492187 -4.08890625 4.05484375 -4.0703125 3.1171875 C-4.04710937 2.41851562 -4.02390625 1.71984375 -4 1 C-2.68 1.33 -1.36 1.66 0 2 C0 1.34 0 0.68 0 0 Z " fill="#335752" transform="translate(12,11)"/>
<path d="M0 0 C0.59355614 2.64860427 0.74209269 5.29197322 1 8 C-1.31 8 -3.62 8 -6 8 C-6 5.36 -6 2.72 -6 0 C-2.25 -1.125 -2.25 -1.125 0 0 Z " fill="#667E65" transform="translate(6,24)"/>
<path d="M0 0 C1.49080078 0.02707031 1.49080078 0.02707031 3.01171875 0.0546875 C3.77097656 0.07789063 4.53023437 0.10109375 5.3125 0.125 C5.6425 0.785 5.9725 1.445 6.3125 2.125 C5.9825 2.785 5.6525 3.445 5.3125 4.125 C1.0225 4.125 -3.2675 4.125 -7.6875 4.125 C-8.0175 3.465 -8.3475 2.805 -8.6875 2.125 C-5.26655758 -0.15562828 -4.00562778 -0.09425007 0 0 Z " fill="#489399" transform="translate(16.6875,8.875)"/>
<path d="M0 0 C2.97 0 5.94 0 9 0 C9 0.66 9 1.32 9 2 C9.66 2.33 10.32 2.66 11 3 C8.36 3 5.72 3 3 3 C3.99 4.32 4.98 5.64 6 7 C4.02 7.33 2.04 7.66 0 8 C-1.08174162 4.63458162 -0.92538169 3.70152678 0 0 Z " fill="#768A89" transform="translate(10,14)"/>
<path d="M0 0 C0.33 0 0.66 0 1 0 C1.02578125 0.68707031 1.0515625 1.37414063 1.078125 2.08203125 C1.13484375 2.98308594 1.1915625 3.88414063 1.25 4.8125 C1.29640625 5.70582031 1.3428125 6.59914063 1.390625 7.51953125 C2.16100644 10.65537876 3.40216052 11.22687147 6 13 C6.25 15.6875 6.25 15.6875 6 18 C3.625 17.5 3.625 17.5 1 16 C-0.66375388 11.24641748 -1.36126265 7.05767706 -1 2 C-0.67 1.34 -0.34 0.68 0 0 Z " fill="#7C9196" transform="translate(7,12)"/>
<path d="M0 0 C0.91007812 0.10183594 1.82015625 0.20367188 2.7578125 0.30859375 C3.45648438 0.39238281 4.15515625 0.47617187 4.875 0.5625 C4.545 2.2125 4.215 3.8625 3.875 5.5625 C-0.43340713 4.48539822 -3.76076723 3.52302484 -7.125 0.5625 C-4.50184968 -0.74907516 -2.89466564 -0.33399988 0 0 Z " fill="#26544D" transform="translate(18.125,16.4375)"/>
<path d="M0 0 C0.78503906 0.00644531 1.57007813 0.01289062 2.37890625 0.01953125 C4.4375 0.1875 4.4375 0.1875 6.4375 1.1875 C6.4375 3.4975 6.4375 5.8075 6.4375 8.1875 C4.4375 5.1875 4.4375 5.1875 3.4375 3.1875 C0.85144668 2.7191735 0.85144668 2.7191735 -2.125 2.5625 C-3.64287109 2.45035156 -3.64287109 2.45035156 -5.19140625 2.3359375 C-6.36509766 2.26246094 -6.36509766 2.26246094 -7.5625 2.1875 C-4.404724 0.082316 -3.60852866 -0.06539344 0 0 Z " fill="#B0CDD2" transform="translate(18.5625,6.8125)"/>
<path d="M0 0 C1.65 0 3.3 0 5 0 C5 1.98 5 3.96 5 6 C4.01 6.33 3.02 6.66 2 7 C2 5.68 2 4.36 2 3 C1.01 3 0.02 3 -1 3 C-0.67 2.01 -0.34 1.02 0 0 Z " fill="#536D47" transform="translate(27,0)"/>
<path d="M0 0 C0.33 0.66 0.66 1.32 1 2 C3.97 2 6.94 2 10 2 C10.33 1.34 10.66 0.68 11 0 C10.67 1.32 10.34 2.64 10 4 C6.37 4 2.74 4 -1 4 C-0.67 2.68 -0.34 1.36 0 0 Z " fill="#2E6F71" transform="translate(12,11)"/>
<path d="M0 0 C2.64 0 5.28 0 8 0 C7.67 0.99 7.34 1.98 7 3 C5.02 3 3.04 3 1 3 C0.67 2.01 0.34 1.02 0 0 Z " fill="#58D3D3" transform="translate(12,10)"/>
<path d="M0 0 C0.33 0.66 0.66 1.32 1 2 C1.66 2 2.32 2 3 2 C3 2.66 3 3.32 3 4 C1.68 4 0.36 4 -1 4 C-1.33 4.99 -1.66 5.98 -2 7 C-2.66 7 -3.32 7 -4 7 C-4 5.68 -4 4.36 -4 3 C-2 1.25 -2 1.25 0 0 Z " fill="#96A9AD" transform="translate(22,21)"/>
<path d="M0 0 C4.875 1.75 4.875 1.75 6 4 C4.02 4.33 2.04 4.66 0 5 C-0.5625 3.0625 -0.5625 3.0625 -1 1 C-0.67 0.67 -0.34 0.34 0 0 Z " fill="#4D8779" transform="translate(10,17)"/>
</svg>
